<svg xmlns="http://www.w3.org/2000/svg" viewBox="0 0 139.55 130"><defs><style>.cls-1{fill:#fff;}</style></defs><g id="Footer"><g id="wAU6ik.tif"><path class="cls-1" d="M81.88,90.18H57.7c-.16,0-.32-.07-.48-.08A11.72,11.72,0,0,1,52.82,89,13.36,13.36,0,0,1,44.64,76.3c-.09-7.52,0-15,0-22.56A13.7,13.7,0,0,1,58.47,39.85c7.55-.06,15.11,0,22.66,0a13.25,13.25,0,0,1,4.29.65,13.46,13.46,0,0,1,9.13,9.82,25.55,25.55,0,0,1,.41,2.6v24.2a23,23,0,0,1-.41,2.6,13.34,13.34,0,0,1-9.88,10A25.76,25.76,0,0,1,81.88,90.18ZM69.79,42.79H58.29a13.36,13.36,0,0,0-1.42.09,10.71,10.71,0,0,0-9.31,10.63c0,7.67,0,15.34,0,23a11.14,11.14,0,0,0,.1,1.41,10.69,10.69,0,0,0,10.62,9.31c7.67,0,15.33,0,23,0a13.53,13.53,0,0,0,1.42-.09A10.71,10.71,0,0,0,92,76.51c0-7.67,0-15.34,0-23a11.12,11.12,0,0,0-.09-1.41,10.68,10.68,0,0,0-10.62-9.31C77.46,42.81,73.62,42.79,69.79,42.79Z"/><path class="cls-1" d="M83.55,65.07a13.75,13.75,0,1,1-13.69-13.8A13.73,13.73,0,0,1,83.55,65.07ZM59,65A10.82,10.82,0,1,0,69.8,54.19,10.82,10.82,0,0,0,59,65Z"/><path class="cls-1" d="M87.92,50.44a4,4,0,1,1-4-4A4,4,0,0,1,87.92,50.44Zm-4,1.1A1.16,1.16,0,0,0,85,50.43a1.2,1.2,0,0,0-1.13-1.14,1.14,1.14,0,0,0-1.12,1.12A1.11,1.11,0,0,0,83.88,51.54Z"/></g></g></svg>