<svg xmlns="http://www.w3.org/2000/svg" viewBox="0 0 674.26 138.07"><defs><style>.cls-1{fill:#2a4359;}.cls-2{font-size:62.78px;font-family:CasualMarkScript, Casual Mark Script;}.cls-2,.cls-3{fill:#a6826d;}.cls-4{fill:none;stroke:#a6826d;stroke-miterlimit:10;stroke-width:1.25px;}</style></defs><g id="Footer"><path class="cls-1" d="M144.27,71.55v1.84q-3.68-.27-9.84-.27-7.92,0-11.78.27V71.55a15,15,0,0,0,5-.87,2.53,2.53,0,0,0,1.52-2.53,12.58,12.58,0,0,0-1.11-4.32l-5.61-15.09H100.21l-3.77,9.75A24,24,0,0,0,94.6,66a4.55,4.55,0,0,0,2,4.14,11.64,11.64,0,0,0,6,1.38v1.84q-5.23-.27-10.58-.27-4.14,0-6.9.27V71.55q4.6-1.1,7.27-8L114,7.81h1.47l22.44,57.86Q140.14,71.37,144.27,71.55ZM121.74,46.9,111.43,19.4,101,46.9Z"/><path class="cls-1" d="M198.76,16.41q8.1,8.13,8.1,23.68a37.23,37.23,0,0,1-4,17.57A27.53,27.53,0,0,1,191.45,69.3q-7.5,4.1-17.89,4.09l-5.34-.09q-5.15-.18-7.54-.18-7.55,0-11.41.27V71.55a18.15,18.15,0,0,0,4.83-.73,3.29,3.29,0,0,0,2.07-2.12,16.49,16.49,0,0,0,.56-5.06V18a16.49,16.49,0,0,0-.56-5.06,3.29,3.29,0,0,0-2.07-2.12,18.15,18.15,0,0,0-4.83-.73V8.27c2.15.18,5.12.27,8.93.27L166,8.45q6.25-.18,8.37-.18Q190.67,8.27,198.76,16.41Zm-30.95-5.84a3.64,3.64,0,0,0-2,2.3,16.6,16.6,0,0,0-.55,5v46a16.65,16.65,0,0,0,.55,5,3.64,3.64,0,0,0,2,2.3,11.16,11.16,0,0,0,4.37.65q9.75,0,15.36-3.54a18.78,18.78,0,0,0,7.87-10.35q2.25-6.81,2.25-17.39t-2.48-17.25a18.84,18.84,0,0,0-8.05-10q-5.56-3.3-15-3.31A10.86,10.86,0,0,0,167.81,10.57Z"/><path class="cls-1" d="M265.12,8.27v1.84c-3.06.73-5.49,3.4-7.26,8L236.24,73.85h-1.47L212.32,16q-2.2-5.7-6.34-5.88V8.27q3.68.27,9.84.27,7.91,0,11.77-.27v1.84a15,15,0,0,0-5,.87,2.53,2.53,0,0,0-1.52,2.53,12.58,12.58,0,0,0,1.11,4.32l16.64,44.25,15-38.91a24.27,24.27,0,0,0,1.84-7.55,4.56,4.56,0,0,0-2-4.13,11.69,11.69,0,0,0-6-1.38V8.27c3.49.18,7,.27,10.57.27Q262.36,8.54,265.12,8.27Z"/><path class="cls-1" d="M317.78,73.39q-6.27-.27-21.07-.27-17.65,0-26.68.27V71.55a18.15,18.15,0,0,0,4.83-.73,3.31,3.31,0,0,0,2.07-2.12,16.49,16.49,0,0,0,.56-5.06V18a16.49,16.49,0,0,0-.56-5.06,3.31,3.31,0,0,0-2.07-2.12,18.15,18.15,0,0,0-4.83-.73V8.27q9,.27,26.68.27,13.52,0,19.23-.27a103.77,103.77,0,0,0-.65,10.85,45,45,0,0,0,.28,5.7h-2.12A43.35,43.35,0,0,0,311.8,16a7.44,7.44,0,0,0-3.41-4.23q-2.38-1.34-7.26-1.34h-7.64a16.49,16.49,0,0,0-4.83.51A3.19,3.19,0,0,0,286.59,13,16.56,16.56,0,0,0,286,18V39.73h6.07a7.37,7.37,0,0,0,5-1.52,7.45,7.45,0,0,0,2.34-3.59,33.34,33.34,0,0,0,1-5.2l.28-1.84h2.11q-.27,3.87-.27,8.65v4.42q0,4.68.55,13.06h-2.12c-.06-.43-.24-1.92-.55-4.46a9,9,0,0,0-2.53-5.75,8.1,8.1,0,0,0-5.75-1.93H286V63.64a16.56,16.56,0,0,0,.55,5.06,3.19,3.19,0,0,0,2.07,2.07,16.49,16.49,0,0,0,4.83.51h6.72c3.8,0,6.69-.51,8.69-1.52a9.14,9.14,0,0,0,4.37-4.88,36.83,36.83,0,0,0,2-9.88h2.12a60.9,60.9,0,0,0-.28,6.62Q317.13,66.86,317.78,73.39Z"/><path class="cls-1" d="M382.78,10.11a12.78,12.78,0,0,0-4.78,1,4.06,4.06,0,0,0-2.12,2.58,19,19,0,0,0-.55,5.29V73.85h-2.12l-38.63-59.7V62.72a17.66,17.66,0,0,0,.6,5.34,4.17,4.17,0,0,0,2.34,2.53,16.12,16.12,0,0,0,5.43,1v1.84c-2.21-.18-5.33-.27-9.38-.27q-5.52,0-8.56.27V71.55a12.89,12.89,0,0,0,4.79-1A4.08,4.08,0,0,0,331.91,68a19,19,0,0,0,.55-5.29V18a16.56,16.56,0,0,0-.55-5.06,3.33,3.33,0,0,0-2.07-2.12,18.15,18.15,0,0,0-4.83-.73V8.27q3,.27,8.56.27,4.14,0,7.17-.27l32.47,50V18.94a18,18,0,0,0-.59-5.34,4.16,4.16,0,0,0-2.35-2.53,16,16,0,0,0-5.43-1V8.27q3.32.27,9.39.27,5.52,0,8.55-.27Z"/><path class="cls-1" d="M440.08,20q0,4.61.28,7.54h-2.12a56,56,0,0,0-1.84-10.53A8.62,8.62,0,0,0,432.54,12q-2.76-1.61-8.47-1.61h-5V62.72a15.57,15.57,0,0,0,.73,5.61,4.11,4.11,0,0,0,2.58,2.39,22.73,22.73,0,0,0,6,.83v1.84q-4.78-.27-13.52-.27-9.21,0-13.62.27V71.55a22.8,22.8,0,0,0,6-.83,4.14,4.14,0,0,0,2.58-2.39,15.57,15.57,0,0,0,.73-5.61V10.38h-5q-5.7,0-8.46,1.61a8.62,8.62,0,0,0-3.86,5.06,56,56,0,0,0-1.84,10.53H389.3q.29-2.94.28-7.54,0-5.25-.64-11.77,7.62.27,25.94.27t25.84-.27Q440.08,14.79,440.08,20Z"/><path class="cls-1" d="M504.27,10.11a12.89,12.89,0,0,0-4.79,1,4.08,4.08,0,0,0-2.11,2.58,19,19,0,0,0-.55,5.29V46.62A62.78,62.78,0,0,1,495.94,58a24.71,24.71,0,0,1-2.89,8.15,16.18,16.18,0,0,1-6.77,6.25,21.68,21.68,0,0,1-10.07,2.3q-10.12,0-15.45-5a18.65,18.65,0,0,1-5.43-8.55Q454,56.38,454,46.9V18A16.56,16.56,0,0,0,453.4,13a3.33,3.33,0,0,0-2.07-2.12,18.15,18.15,0,0,0-4.83-.73V8.27q3.87.27,11.77.27,7.46,0,11.69-.27v1.84a18.15,18.15,0,0,0-4.83.73A3.33,3.33,0,0,0,463.06,13a16.56,16.56,0,0,0-.55,5.06V48.46a61.32,61.32,0,0,0,1,12.24,14.29,14.29,0,0,0,4.18,7.82q3.18,2.94,9.34,2.94,9.75,0,13.71-6.25t3.95-17.57V18.94c0-3.32-.6-5.58-1.79-6.81s-3.39-1.9-6.58-2V8.27q3.32.27,9.38.27,5.52,0,8.56-.27Z"/><path class="cls-1" d="M567.48,68.79a15.91,15.91,0,0,1-4.23,4.51,10.13,10.13,0,0,1-5.61,1.38,8.89,8.89,0,0,1-6.21-2.21q-2.45-2.2-3.63-7.72l-2-9.2a59.56,59.56,0,0,0-2.07-7.36,9.4,9.4,0,0,0-2.9-4.14,8.39,8.39,0,0,0-5.42-1.56h-8.74V63.64a16.56,16.56,0,0,0,.55,5.06,3.33,3.33,0,0,0,2.07,2.12,18.15,18.15,0,0,0,4.83.73v1.84c-2.82-.18-6.72-.27-11.68-.27q-7.92,0-11.78.27V71.55a18.15,18.15,0,0,0,4.83-.73,3.33,3.33,0,0,0,2.07-2.12,16.56,16.56,0,0,0,.55-5.06V18a16.56,16.56,0,0,0-.55-5.06,3.33,3.33,0,0,0-2.07-2.12,18.15,18.15,0,0,0-4.83-.73V8.27q3.87.27,11.23.27l9.93-.09c1.16-.06,2.48-.09,4-.09q10.68,0,16.42,4.46a13.93,13.93,0,0,1,5.75,11.54,16.79,16.79,0,0,1-1.7,7.22,17.15,17.15,0,0,1-5.7,6.54A24,24,0,0,1,540.07,42l1.1.18q6.08,1,8.83,3.68t4,8.46l2.3,9.38a20.79,20.79,0,0,0,1.93,5.89A3.13,3.13,0,0,0,561,71.28a4.13,4.13,0,0,0,2.62-.83,14.16,14.16,0,0,0,2.44-2.67Zm-38.31-58a3.66,3.66,0,0,0-2,2.3,16.68,16.68,0,0,0-.55,5V40.65h6.16q9.11,0,12.51-4t3.41-11.22q0-7.54-3.59-11.41t-11.68-3.86A10.86,10.86,0,0,0,529.17,10.75Z"/><path class="cls-1" d="M619.57,73.39q-6.26-.27-21.06-.27-17.67,0-26.68.27V71.55a18.15,18.15,0,0,0,4.83-.73,3.33,3.33,0,0,0,2.07-2.12,16.56,16.56,0,0,0,.55-5.06V18a16.56,16.56,0,0,0-.55-5.06,3.33,3.33,0,0,0-2.07-2.12,18.15,18.15,0,0,0-4.83-.73V8.27q9,.27,26.68.27,13.51,0,19.22-.27a103.54,103.54,0,0,0-.64,10.85,47.26,47.26,0,0,0,.27,5.7h-2.11A42.54,42.54,0,0,0,613.59,16a7.42,7.42,0,0,0-3.4-4.23q-2.4-1.34-7.27-1.34h-7.63a16.49,16.49,0,0,0-4.83.51A3.19,3.19,0,0,0,588.39,13a16.56,16.56,0,0,0-.55,5.06V39.73h6.07a7,7,0,0,0,7.31-5.11,33.34,33.34,0,0,0,1-5.2l.27-1.84h2.12q-.29,3.87-.28,8.65v4.42q0,4.68.55,13.06h-2.11c-.06-.43-.25-1.92-.55-4.46a9,9,0,0,0-2.53-5.75,8.1,8.1,0,0,0-5.75-1.93h-6.07V63.64a16.56,16.56,0,0,0,.55,5.06,3.19,3.19,0,0,0,2.07,2.07,16.49,16.49,0,0,0,4.83.51H602q5.7,0,8.69-1.52a9.1,9.1,0,0,0,4.37-4.88,36.77,36.77,0,0,0,2-9.88h2.11a64,64,0,0,0-.27,6.62Q618.93,66.86,619.57,73.39Z"/><path class="cls-1" d="M652.31,8.13a23.45,23.45,0,0,1,4.83,2.53A6.64,6.64,0,0,0,660.27,12a1.42,1.42,0,0,0,1.28-1,10.67,10.67,0,0,0,.74-3.08h2.11Q664,13.24,664,26.66h-2.12a23.77,23.77,0,0,0-4.28-12.55Q653.83,9,646.74,9a11.23,11.23,0,0,0-8.09,3,10.14,10.14,0,0,0-3.13,7.68,11.23,11.23,0,0,0,1.61,6.07,16.08,16.08,0,0,0,4.09,4.42q2.49,1.85,7.09,4.69L651,36.51a92.19,92.19,0,0,1,9.15,6.3A22.39,22.39,0,0,1,665.51,49a16,16,0,0,1,2,8.18q0,8.37-5.52,12.93t-14,4.55a23.75,23.75,0,0,1-7.22-.92,25.89,25.89,0,0,1-5.38-2.48A6.64,6.64,0,0,0,632.3,70,1.42,1.42,0,0,0,631,71a11.07,11.07,0,0,0-.73,3.08h-2.12q.38-5.07.37-22.08h2.12q.63,9.28,4.6,15.09t12.14,5.79a12.37,12.37,0,0,0,8.46-3.08c2.33-2.05,3.5-5.11,3.5-9.15a12.13,12.13,0,0,0-3.45-8.74,55.58,55.58,0,0,0-10.9-8.1,102.57,102.57,0,0,1-8.79-5.88,21.23,21.23,0,0,1-5.47-6.21,16.64,16.64,0,0,1-2.12-8.51q0-7.73,5-11.82a21.49,21.49,0,0,1,18.72-3.22Z"/><text class="cls-2" transform="translate(2.4 67.1) scale(1.1 1)">[mis]</text><path class="cls-3" d="M311,100q2.21,2.36,2.2,7.17c0,3.2-.73,5.59-2.2,7.15a8.25,8.25,0,0,1-11.53,0c-1.46-1.56-2.19-4-2.19-7.15s.73-5.6,2.19-7.17A8.2,8.2,0,0,1,311,100Zm-9.1.49c-.81,1.44-1.22,3.66-1.22,6.68s.41,5.23,1.22,6.66a3.67,3.67,0,0,0,6.67,0c.82-1.43,1.22-3.65,1.22-6.66s-.4-5.24-1.22-6.68a3.65,3.65,0,0,0-6.67,0Z"/><path class="cls-3" d="M326.74,89.69a2.72,2.72,0,0,1,1.09,2.18A1.81,1.81,0,0,1,326,93.73a2,2,0,0,1-1.37-.51,1.79,1.79,0,0,1-.56-1.39,1.73,1.73,0,0,1,.4-1.19,1.92,1.92,0,0,1,1.07-.59.91.91,0,0,0-.56-.56,2.61,2.61,0,0,0-1.16-.22,2.56,2.56,0,0,0-1.36.36,2.29,2.29,0,0,0-.91.94,5.37,5.37,0,0,0-.51,2.07c-.08.91-.13,2.44-.13,4.59v.92h3.76v.7h-3.76v13.71a2.51,2.51,0,0,0,.93,2.24,5,5,0,0,0,2.79.63v.74l-.84,0c-2.38-.07-3.9-.1-4.56-.1s-2,0-4.14.14v-.74a3.1,3.1,0,0,0,2.07-.54,2.6,2.6,0,0,0,.6-2V98.85h-2.81v-.7h2.81a23.14,23.14,0,0,1,.38-4.77,6.71,6.71,0,0,1,1.41-2.88,4.91,4.91,0,0,1,1.78-1.28,6,6,0,0,1,2.39-.47A4.86,4.86,0,0,1,326.74,89.69Z"/><path class="cls-3" d="M336.82,115.31a4.25,4.25,0,0,1-1.07-3.07,3.89,3.89,0,0,1,.86-2.59,6.49,6.49,0,0,1,2-1.62,28.09,28.09,0,0,1,3.11-1.26,15.55,15.55,0,0,0,2.91-1.23,1.68,1.68,0,0,0,.94-1.5v-2.18a3.57,3.57,0,0,0-.86-2.78,3.47,3.47,0,0,0-2.4-.76,4.23,4.23,0,0,0-3.47,1.26,2.27,2.27,0,0,1,1.18.74,2.11,2.11,0,0,1,.47,1.4,1.79,1.79,0,0,1-.56,1.39,2.08,2.08,0,0,1-1.44.51,1.76,1.76,0,0,1-1.47-.62,2.29,2.29,0,0,1-.49-1.49,2.32,2.32,0,0,1,.4-1.4A4.94,4.94,0,0,1,338.17,99a7,7,0,0,1,2.14-1,9.8,9.8,0,0,1,2.84-.39,5.89,5.89,0,0,1,4.14,1.3,4,4,0,0,1,1.17,1.94,12.17,12.17,0,0,1,.3,3v9.75a2.38,2.38,0,0,0,.25,1.26.91.91,0,0,0,.84.39,1.68,1.68,0,0,0,.79-.2,3.94,3.94,0,0,0,.78-.54l.39.6a8.69,8.69,0,0,1-1.56,1,3.89,3.89,0,0,1-1.63.3,2.84,2.84,0,0,1-2.35-.85,3.6,3.6,0,0,1-.67-2.28,6,6,0,0,1-2.42,2.44,6.74,6.74,0,0,1-3.08.69A4.37,4.37,0,0,1,336.82,115.31Zm8.78-3v-6.88a2.43,2.43,0,0,1-.87.81c-.38.21-1,.49-1.72.84a16.68,16.68,0,0,0-2.16,1.07,4.69,4.69,0,0,0-1.42,1.39,3.87,3.87,0,0,0-.59,2.24,3.32,3.32,0,0,0,.77,2.39,2.7,2.7,0,0,0,2,.8Q344,115,345.6,112.35Z"/><path class="cls-3" d="M367.24,98.15h5.19v.7h-5.19v13.57a3.57,3.57,0,0,0,.58,2.28,2,2,0,0,0,1.66.7,2.37,2.37,0,0,0,1.86-.88,7.07,7.07,0,0,0,1.3-2.87l.7.17q-.87,4.84-4.56,4.84a5.73,5.73,0,0,1-2-.28,3.7,3.7,0,0,1-1.37-.88,4.12,4.12,0,0,1-1.07-1.89,12.12,12.12,0,0,1-.3-3V98.85h-3.36v-.7h3.36V92.78a11.08,11.08,0,0,0,3.16-.49Z"/><path class="cls-3" d="M387.87,98.43a2.51,2.51,0,0,1,.89,2,2.35,2.35,0,0,1-.54,1.56,1.81,1.81,0,0,1-1.45.65,1.88,1.88,0,0,1-1.32-.49,1.71,1.71,0,0,1-.54-1.33,2.18,2.18,0,0,1,1.19-1.9.85.85,0,0,0-.74-.35,3.55,3.55,0,0,0-2.49,1.07,7.49,7.49,0,0,0-1.75,2.61,7.73,7.73,0,0,0-.63,2.91v7.44a2.51,2.51,0,0,0,.93,2.24,5,5,0,0,0,2.79.63v.74l-.84,0c-2.39-.07-3.91-.1-4.56-.1s-2,0-4.14.14v-.74a3.1,3.1,0,0,0,2.07-.54,2.64,2.64,0,0,0,.59-2v-11a3.79,3.79,0,0,0-.59-2.35,2.54,2.54,0,0,0-2.07-.73v-.74c.75.07,1.47.11,2.17.11a11.67,11.67,0,0,0,3.65-.49v4.38a8.19,8.19,0,0,1,2-3.12,4.27,4.27,0,0,1,3.06-1.37A3.28,3.28,0,0,1,387.87,98.43Z"/><path class="cls-3" d="M391.79,115.31a4.25,4.25,0,0,1-1.07-3.07,3.89,3.89,0,0,1,.86-2.59,6.49,6.49,0,0,1,2-1.62,28.09,28.09,0,0,1,3.11-1.26,15.55,15.55,0,0,0,2.91-1.23,1.68,1.68,0,0,0,.94-1.5v-2.18a3.57,3.57,0,0,0-.86-2.78,3.47,3.47,0,0,0-2.4-.76,4.23,4.23,0,0,0-3.47,1.26,2.27,2.27,0,0,1,1.18.74,2.11,2.11,0,0,1,.47,1.4,1.79,1.79,0,0,1-.56,1.39,2.06,2.06,0,0,1-1.44.51A1.78,1.78,0,0,1,392,103a2.29,2.29,0,0,1-.49-1.49,2.32,2.32,0,0,1,.4-1.4A4.94,4.94,0,0,1,393.14,99a7,7,0,0,1,2.14-1,9.8,9.8,0,0,1,2.84-.39,5.89,5.89,0,0,1,4.14,1.3,4,4,0,0,1,1.17,1.94,12.17,12.17,0,0,1,.3,3v9.75a2.38,2.38,0,0,0,.25,1.26.91.91,0,0,0,.84.39,1.68,1.68,0,0,0,.79-.2,3.94,3.94,0,0,0,.78-.54l.39.6a8.69,8.69,0,0,1-1.56,1,3.89,3.89,0,0,1-1.63.3,2.84,2.84,0,0,1-2.35-.85,3.6,3.6,0,0,1-.67-2.28,6,6,0,0,1-2.42,2.44,6.74,6.74,0,0,1-3.08.69A4.37,4.37,0,0,1,391.79,115.31Zm8.78-3v-6.88a2.43,2.43,0,0,1-.87.81c-.38.21-.95.49-1.72.84a16.68,16.68,0,0,0-2.16,1.07,4.69,4.69,0,0,0-1.42,1.39,4,4,0,0,0-.59,2.24,3.32,3.32,0,0,0,.77,2.39,2.7,2.7,0,0,0,2,.8C398.15,115,399.48,114.12,400.57,112.35Z"/><path class="cls-3" d="M423.22,98.11v.7a2,2,0,0,0-1.25.63,5.48,5.48,0,0,0-1,1.83l-5.75,15.08h-.6l-6.45-15.54a4.27,4.27,0,0,0-1-1.58,1.68,1.68,0,0,0-1-.38v-.74c1.22.09,2.25.14,3.09.14,1.8,0,3.32,0,4.56-.14v.74a6.72,6.72,0,0,0-1.9.19.92.92,0,0,0-.59,1,5.26,5.26,0,0,0,.38,1.54L416,112.24l3.85-10.13a5.12,5.12,0,0,0,.39-1.65,1.27,1.27,0,0,0-.61-1.17,4.67,4.67,0,0,0-2-.48v-.7c1.22.07,2.2.11,2.95.11C421.58,98.22,422.47,98.18,423.22,98.11Z"/><path class="cls-3" d="M438.61,112a7.05,7.05,0,0,1-2.37,3.32,6.54,6.54,0,0,1-4.19,1.38,8,8,0,0,1-4.32-1.14,7.34,7.34,0,0,1-2.78-3.19,11,11,0,0,1-1-4.75,13.23,13.23,0,0,1,1-5.3,7.93,7.93,0,0,1,2.77-3.45,7.28,7.28,0,0,1,4.18-1.21,6.16,6.16,0,0,1,4.85,1.91c1.14,1.28,1.7,3.21,1.7,5.8h-11a21.43,21.43,0,0,0-.11,2.25,10,10,0,0,0,.76,4,6.4,6.4,0,0,0,2,2.65,4.3,4.3,0,0,0,2.61.93,5.53,5.53,0,0,0,3-.81,6.06,6.06,0,0,0,2.17-2.7ZM428.93,99.9a9.4,9.4,0,0,0-1.48,4.77h7.65a10.06,10.06,0,0,0-.79-4.56,2.72,2.72,0,0,0-2.54-1.82A3.45,3.45,0,0,0,428.93,99.9Z"/><path class="cls-3" d="M446.08,112.91a2.6,2.6,0,0,0,.6,2,3.06,3.06,0,0,0,2.07.54v.74c-2.16-.09-3.57-.14-4.25-.14s-2.09,0-4.24.14v-.74a3.1,3.1,0,0,0,2.07-.54,2.6,2.6,0,0,0,.6-2v-20a3.7,3.7,0,0,0-.6-2.35,2.54,2.54,0,0,0-2.07-.74v-.74c.72.07,1.45.11,2.17.11a11.38,11.38,0,0,0,3.65-.49Z"/><path class="cls-3" d="M456.77,112.91a2.6,2.6,0,0,0,.6,2,3.08,3.08,0,0,0,2.07.54v.74c-2.15-.09-3.57-.14-4.25-.14s-2.09,0-4.24.14v-.74a3.1,3.1,0,0,0,2.07-.54,2.6,2.6,0,0,0,.6-2v-20a3.7,3.7,0,0,0-.6-2.35A2.54,2.54,0,0,0,451,89.8v-.74c.73.07,1.45.11,2.18.11a11.36,11.36,0,0,0,3.64-.49Z"/><path class="cls-3" d="M467.58,112.91a2.6,2.6,0,0,0,.6,2,3.1,3.1,0,0,0,2.07.54v.74c-2.15-.09-3.57-.14-4.24-.14s-2.1,0-4.25.14v-.74a3.1,3.1,0,0,0,2.07-.54,2.6,2.6,0,0,0,.6-2v-11a3.72,3.72,0,0,0-.6-2.35,2.54,2.54,0,0,0-2.07-.73v-.74c.75.07,1.48.11,2.18.11a11.64,11.64,0,0,0,3.64-.49ZM467.34,90a2.2,2.2,0,1,1-1.58-.67A2.18,2.18,0,0,1,467.34,90Z"/><path class="cls-3" d="M488.09,99a4.05,4.05,0,0,1,1,1.76,11.75,11.75,0,0,1,.28,2.84v9.36a2.6,2.6,0,0,0,.59,2,3.1,3.1,0,0,0,2.07.54v.74c-2.15-.09-3.55-.14-4.21-.14s-2,0-3.92.14v-.74a2.42,2.42,0,0,0,1.8-.54,2.91,2.91,0,0,0,.51-2V102.77a6.46,6.46,0,0,0-.56-3,2.35,2.35,0,0,0-2.28-1,4.16,4.16,0,0,0-2.56.84,5.5,5.5,0,0,0-1.74,2.3,8.43,8.43,0,0,0-.61,3.24v7.79a2.91,2.91,0,0,0,.51,2,2.43,2.43,0,0,0,1.81.54v.74c-2-.09-3.28-.14-3.93-.14s-2.06,0-4.21.14v-.74a3.1,3.1,0,0,0,2.07-.54,2.6,2.6,0,0,0,.59-2v-11a3.72,3.72,0,0,0-.59-2.35,2.54,2.54,0,0,0-2.07-.73v-.74c.75.07,1.47.11,2.17.11a11.67,11.67,0,0,0,3.65-.49v4.13a6.56,6.56,0,0,1,2.44-3.24,6.35,6.35,0,0,1,3.52-1A4.87,4.87,0,0,1,488.09,99Z"/><path class="cls-3" d="M508.23,100.85a1.63,1.63,0,0,1-.44-1.23,4.6,4.6,0,0,1,.35-1.61,4.48,4.48,0,0,0-2.38,2,5.56,5.56,0,0,1,.81,3.12,5.06,5.06,0,0,1-1.69,4.16,6.78,6.78,0,0,1-4.45,1.38h0a9,9,0,0,0-1.76,1.23,1.67,1.67,0,0,0-.59,1.26c0,.75.56,1.12,1.68,1.12h4.38a7,7,0,0,1,3.95,1,3.47,3.47,0,0,1,1.56,3.1,5.11,5.11,0,0,1-1.09,3.12,7.52,7.52,0,0,1-3.19,2.32,13.29,13.29,0,0,1-5.08.87,12.38,12.38,0,0,1-5.11-.93,3,3,0,0,1-2-2.75,2.7,2.7,0,0,1,1-2.07,6.68,6.68,0,0,1,2.68-1.37l.21.56a2.25,2.25,0,0,0-1.23,1,3.09,3.09,0,0,0-.45,1.64,2.73,2.73,0,0,0,1.45,2.48,7.68,7.68,0,0,0,3.91.86,9.68,9.68,0,0,0,4.63-1,3.42,3.42,0,0,0,1.93-3.21,2.35,2.35,0,0,0-.9-2,5.27,5.27,0,0,0-3.17-.7h-2.59a8.69,8.69,0,0,1-3.32-.53,2,2,0,0,1-1.24-2.1,3.22,3.22,0,0,1,.79-2.07,7.94,7.94,0,0,1,2.61-1.93,6,6,0,0,1-3.7-1.61,5.2,5.2,0,0,1-1.39-3.86A5.06,5.06,0,0,1,496,99a6.73,6.73,0,0,1,4.45-1.39,6.14,6.14,0,0,1,4.88,1.82A5.46,5.46,0,0,1,507,97.88a3.88,3.88,0,0,1,2-.61,2.05,2.05,0,0,1,1.47.53,1.94,1.94,0,0,1,.57,1.5,1.91,1.91,0,0,1-.55,1.48,1.78,1.78,0,0,1-1.21.49A1.49,1.49,0,0,1,508.23,100.85ZM502.55,107a7.38,7.38,0,0,0,.72-3.81,7.31,7.31,0,0,0-.72-3.8,2.58,2.58,0,0,0-4.24,0,7.31,7.31,0,0,0-.72,3.8,7.38,7.38,0,0,0,.72,3.81,2.59,2.59,0,0,0,4.24,0Z"/><path class="cls-3" d="M526.87,112.91a2.6,2.6,0,0,0,.6,2,3,3,0,0,0,2.06.54v.74c-2.15-.09-3.56-.14-4.24-.14s-2.09,0-4.24.14v-.74a3.1,3.1,0,0,0,2.07-.54,2.64,2.64,0,0,0,.59-2v-11a3.79,3.79,0,0,0-.59-2.35,2.54,2.54,0,0,0-2.07-.73v-.74c.75.07,1.47.11,2.17.11a11.67,11.67,0,0,0,3.65-.49ZM526.62,90a2.25,2.25,0,1,1-3.15,0,2.19,2.19,0,0,1,3.15,0Z"/><path class="cls-3" d="M547.38,99a3.94,3.94,0,0,1,.94,1.76,11.26,11.26,0,0,1,.28,2.84v9.36a2.6,2.6,0,0,0,.6,2,3.1,3.1,0,0,0,2.07.54v.74c-2.15-.09-3.56-.14-4.21-.14s-2,0-3.93.14v-.74a2.43,2.43,0,0,0,1.81-.54,2.91,2.91,0,0,0,.51-2V102.77a6.46,6.46,0,0,0-.56-3,2.37,2.37,0,0,0-2.28-1,4.16,4.16,0,0,0-2.56.84,5.5,5.5,0,0,0-1.74,2.3,8.24,8.24,0,0,0-.61,3.24v7.79a2.91,2.91,0,0,0,.51,2,2.4,2.4,0,0,0,1.8.54v.74c-2-.09-3.27-.14-3.92-.14s-2.06,0-4.21.14v-.74a3.1,3.1,0,0,0,2.07-.54,2.64,2.64,0,0,0,.59-2v-11a3.79,3.79,0,0,0-.59-2.35,2.54,2.54,0,0,0-2.07-.73v-.74c.74.07,1.47.11,2.17.11a11.71,11.71,0,0,0,3.65-.49v4.13a6.49,6.49,0,0,1,2.43-3.24,6.38,6.38,0,0,1,3.53-1A4.9,4.9,0,0,1,547.38,99Z"/><path class="cls-3" d="M557.74,98.15h5.19v.7h-5.19v13.57a3.63,3.63,0,0,0,.58,2.28,2.07,2.07,0,0,0,1.67.7,2.4,2.4,0,0,0,1.86-.88,7.21,7.21,0,0,0,1.29-2.87l.71.17q-.89,4.84-4.56,4.84a5.79,5.79,0,0,1-2-.28,3.67,3.67,0,0,1-1.36-.88,4,4,0,0,1-1.07-1.89,12.12,12.12,0,0,1-.3-3V98.85h-3.37v-.7h3.37V92.78a11,11,0,0,0,3.15-.49Z"/><path class="cls-3" d="M578.38,98.43a2.55,2.55,0,0,1,.89,2,2.35,2.35,0,0,1-.54,1.56,1.83,1.83,0,0,1-1.46.65,1.87,1.87,0,0,1-1.31-.49,1.69,1.69,0,0,1-.55-1.33,2.17,2.17,0,0,1,1.2-1.9.86.86,0,0,0-.74-.35,3.55,3.55,0,0,0-2.49,1.07,7.36,7.36,0,0,0-1.75,2.61,7.73,7.73,0,0,0-.63,2.91v7.44a2.53,2.53,0,0,0,.92,2.24,5,5,0,0,0,2.79.63v.74l-.84,0c-2.38-.07-3.9-.1-4.56-.1s-2,0-4.14.14v-.74a3.06,3.06,0,0,0,2.07-.54,2.6,2.6,0,0,0,.6-2v-11a3.72,3.72,0,0,0-.6-2.35,2.51,2.51,0,0,0-2.07-.73v-.74c.75.07,1.48.11,2.18.11a11.71,11.71,0,0,0,3.65-.49v4.38A8.29,8.29,0,0,1,573,99a4.29,4.29,0,0,1,3.07-1.37A3.31,3.31,0,0,1,578.38,98.43Z"/><path class="cls-3" d="M595,100q2.2,2.36,2.2,7.17c0,3.2-.73,5.59-2.2,7.15a8.25,8.25,0,0,1-11.53,0c-1.46-1.56-2.19-4-2.19-7.15s.73-5.6,2.19-7.17A8.2,8.2,0,0,1,595,100Zm-9.09.49c-.82,1.44-1.23,3.66-1.23,6.68s.41,5.23,1.23,6.66a3.66,3.66,0,0,0,6.66,0q1.23-2.14,1.23-6.66c0-3-.41-5.24-1.23-6.68a3.65,3.65,0,0,0-6.66,0Z"/><path class="cls-3" d="M615.06,98.11v.7a2,2,0,0,0-1.24.63,5.48,5.48,0,0,0-1,1.83L607,116.35h-.6L600,100.81a4.4,4.4,0,0,0-1-1.58,1.68,1.68,0,0,0-1-.38v-.74c1.21.09,2.24.14,3.09.14,1.79,0,3.31,0,4.55-.14v.74a6.68,6.68,0,0,0-1.89.19.92.92,0,0,0-.6,1,5,5,0,0,0,.39,1.54l4.31,10.66,3.86-10.13a5.12,5.12,0,0,0,.39-1.65,1.26,1.26,0,0,0-.62-1.17,4.66,4.66,0,0,0-2-.48v-.7c1.22.07,2.2.11,2.95.11C613.42,98.22,614.31,98.18,615.06,98.11Z"/><path class="cls-3" d="M630.45,112a7,7,0,0,1-2.37,3.32,6.5,6.5,0,0,1-4.19,1.38,8,8,0,0,1-4.31-1.14,7.43,7.43,0,0,1-2.79-3.19,11.1,11.1,0,0,1-1-4.75,13.23,13.23,0,0,1,1-5.3,7.86,7.86,0,0,1,2.77-3.45,7.23,7.23,0,0,1,4.17-1.21,6.17,6.17,0,0,1,4.86,1.91q1.7,1.92,1.7,5.8h-11a21.43,21.43,0,0,0-.11,2.25,10,10,0,0,0,.75,4,6.48,6.48,0,0,0,2,2.65,4.3,4.3,0,0,0,2.62.93,5.53,5.53,0,0,0,3-.81,6.06,6.06,0,0,0,2.17-2.7ZM620.77,99.9a9.5,9.5,0,0,0-1.47,4.77h7.64a10.06,10.06,0,0,0-.78-4.56,2.73,2.73,0,0,0-2.55-1.82A3.46,3.46,0,0,0,620.77,99.9Z"/><path class="cls-3" d="M645.43,98.43a2.55,2.55,0,0,1,.89,2,2.35,2.35,0,0,1-.54,1.56,1.81,1.81,0,0,1-1.46.65,1.87,1.87,0,0,1-1.31-.49,1.69,1.69,0,0,1-.55-1.33,2.17,2.17,0,0,1,1.2-1.9.86.86,0,0,0-.74-.35,3.55,3.55,0,0,0-2.49,1.07,7.36,7.36,0,0,0-1.75,2.61,7.73,7.73,0,0,0-.63,2.91v7.44a2.53,2.53,0,0,0,.92,2.24,5,5,0,0,0,2.79.63v.74l-.84,0c-2.38-.07-3.9-.1-4.56-.1s-2,0-4.14.14v-.74a3.06,3.06,0,0,0,2.07-.54,2.6,2.6,0,0,0,.6-2v-11a3.72,3.72,0,0,0-.6-2.35,2.51,2.51,0,0,0-2.07-.73v-.74c.75.07,1.48.11,2.18.11a11.71,11.71,0,0,0,3.65-.49v4.38a8.29,8.29,0,0,1,2-3.12,4.31,4.31,0,0,1,3.07-1.37A3.31,3.31,0,0,1,645.43,98.43Z"/><path class="cls-3" d="M654.5,98.15h5.19v.7H654.5v13.57a3.57,3.57,0,0,0,.58,2.28,2,2,0,0,0,1.66.7,2.37,2.37,0,0,0,1.86-.88,7.07,7.07,0,0,0,1.3-2.87l.7.17q-.87,4.84-4.56,4.84a5.73,5.73,0,0,1-2-.28,3.7,3.7,0,0,1-1.37-.88,4.12,4.12,0,0,1-1.07-1.89,12.12,12.12,0,0,1-.3-3V98.85H648v-.7h3.36V92.78a11.08,11.08,0,0,0,3.16-.49Z"/><path class="cls-3" d="M667,112.84a2.19,2.19,0,0,1,0,3.15,2.2,2.2,0,0,1-3.16,0,2.25,2.25,0,0,1,1.58-3.82A2.13,2.13,0,0,1,667,112.84Z"/><line class="cls-4" x1="149.16" y1="131.48" x2="269.95" y2="131.48"/></g></svg>