<svg xmlns="http://www.w3.org/2000/svg" viewBox="0 0 160 130"><defs><style>.cls-1,.cls-2{fill:none;stroke:#2a4359;stroke-width:1.65px;}.cls-1{stroke-miterlimit:10;}.cls-2{stroke-linecap:round;stroke-linejoin:round;}</style></defs><g id="Footer"><g id="J4MfQP.tif"><path class="cls-1" d="M128.86,80.42a111.79,111.79,0,0,0,8.38,15.09c2,2.95.11,3.67-1.05,3.66-4.75,0-9.5,0-14.25,0a2.81,2.81,0,0,1-3-2c-1.29-3.34-2.65-6.64-4-10-.17-.43-.37-.84-.67-1.53-1.3,3.94-2.53,7.54-3.68,11.18a4,4,0,0,1-2.05,2.62H23.86c-2.26-1.19-2.47-2.28-1.07-4.37a132.81,132.81,0,0,0,7.4-11.44C34.63,75.31,43.73,54.57,46,41.39c.71-4.19.26-4.57,5.53-5.11,16.35-1.67,32.68-3.58,49-5.45,3-.35,6-1,9-1.48,1.84-.3,2.68.29,3.17,2.09,2.21,8.16,4,16.47,6.76,24.45C119.46,55.89,125.56,74.38,128.86,80.42ZM112.06,30c1.77,17.52-11,53.33-20.63,69.41"/><path class="cls-1" d="M57.86,69.27c4.48.07,14.89,0,22.27,0,1.07,0,1.62-.29,1.84-1,.87-2.71,1.43-4.81,2.35-7.71-8.38,0-13,0-22.12.26a1.88,1.88,0,0,0-1.86,1.46C59.52,64.65,58.6,66.93,57.86,69.27Z"/></g><path class="cls-2" d="M40.7,59.7C38,64,28.05,86.42,4.12,89.92"/><line class="cls-2" x1="6.82" y1="82.47" x2="12.24" y2="100.72"/><path class="cls-2" d="M123.42,67.22c2.74,5.33,18.28,21.33,32.46,22.7"/><line class="cls-2" x1="152.83" y1="83.37" x2="147.04" y2="98.91"/></g></svg>