<svg xmlns="http://www.w3.org/2000/svg" viewBox="0 0 160 130"><defs><style>.cls-1,.cls-3{fill:none;stroke:#2a4359;stroke-miterlimit:10;stroke-width:1.65px;}.cls-2{fill:#2a4359;}.cls-3{stroke-dasharray:6.77 6.77;}</style></defs><g id="Footer"><g id="vmNRvB"><path class="cls-1" d="M64.45,34.69l.42-.89c.54-1.18.53-1.16,1.81-1q3.12.29,6.24.49A2.21,2.21,0,0,0,74,33.06c8.29-3.87,16.59-7.72,24.84-11.69a9.1,9.1,0,0,1,5.12-.85c4,.39,8,.62,11.93.93,2,.15,4,.37,6,.52,2.83.21,5.66.4,8.5.59.84.06,1.68.15,2.52.18.6,0,.84.28.94.86.55,3.19,1.14,6.37,1.72,9.55q2.41,13.29,4.85,26.57,1.35,7.4,2.71,14.8l3.21,17.65c0,.19,0,.4.07.69l-5.05-.42L131,91.51l-12.13-1.08c-1.59-.14-3.18-.29-4.77-.4a1.67,1.67,0,0,0-.79.23L93.75,99.73c-2.36,1.14-4.72,2.29-7.1,3.42a1.6,1.6,0,0,1-.8.16c-5.47-.48-10.94-1-16.41-1.48-4.37-.39-8.74-.78-13.11-1.14a3,3,0,0,0-1.41.28Q41,107.68,27.1,114.42c-.22.11-.46.2-.77.34-.31-1.69-.61-3.3-.9-4.91L20.84,84.73,15.71,56.57c-.68-3.7-1.33-7.39-2-11.07a.85.85,0,0,1,.59-1.12c2.82-1.27,5.62-2.58,8.42-3.89l7.62-3.63,1-.45"/></g><line class="cls-1" x1="72.92" y1="33.25" x2="86.65" y2="103.15"/><path class="cls-2" d="M47.61,55.79c-.62-.78-1.2-1.5-1.77-2.24a84,84,0,0,1-9.72-15.38,24,24,0,0,1-2.35-7.43c-.89-7.84,3.89-14,11.28-15.26a14.41,14.41,0,0,1,11.64,2.79,12.54,12.54,0,0,1,4.77,8.58,18.12,18.12,0,0,1-1.91,10.24c-1.06,2.26-2.27,4.45-3.5,6.63a92.57,92.57,0,0,1-8,11.49C48,55.38,47.82,55.54,47.61,55.79Zm.07-34.71a8.09,8.09,0,1,0,8,8.13A8.05,8.05,0,0,0,47.68,21.08Z"/><path class="cls-1" d="M20,71.09c1,.51,1.89,1,2.83,1.57"/><path class="cls-3" d="M28.8,75.82c5.15,2.32,11.75,4,23.08,3.2C70.59,77.76,81.4,52.33,104.6,42.61c8.47-3.54,20.58,3.72,27.41,8.68"/><path class="cls-1" d="M134.72,53.33c1.57,1.24,2.49,2.06,2.49,2.06"/></g></svg>