<svg xmlns="http://www.w3.org/2000/svg" viewBox="0 0 160 130"><defs><style>.cls-1{fill:none;stroke:#2a4359;stroke-miterlimit:10;stroke-width:1.65px;}.cls-2{fill:#2a4359;}</style></defs><g id="Footer"><g id="JBX4oj"><path class="cls-1" d="M102.59,79.46c21.4-.62,37.46-23.56,31.67-43.26-4.95.3-8.43-1.81-9.87-6.56a28.21,28.21,0,0,1-4.33.13,12.52,12.52,0,0,1-11-8.76c-.36-1-.47-2-1.85-2.48-3.28-1.08-4.87-3.7-5.55-7-.23-1.05-.49-2.1-.71-3.08C78.69,7.16,62.63,27.74,64.33,43.88"/></g><path class="cls-1" d="M102.17,84.43c-.87,12.73-6,22.21-15.88,29.54a37.28,37.28,0,0,1-26.15,7.44,38.89,38.89,0,0,1-35.42-35.2A37.51,37.51,0,0,1,28.48,65.9,38.47,38.47,0,0,1,42.1,50.36,38,38,0,0,1,61.62,44C86.75,42.89,103.48,65.25,102.17,84.43Z"/><path class="cls-2" d="M60.1,83c0,2.24-1.7,3.8-3.75,3a11.85,11.85,0,0,1-3.68-2.71c-.29-.27-.11-1.45.24-1.9a4.74,4.74,0,0,1,4.9-1.73A3.2,3.2,0,0,1,60.1,83ZM52,99.41c-2.67-1.37-5.31.52-5.34,3.87,0,2,.38,2.43,3,2.28a4.34,4.34,0,0,0,2-.52,6,6,0,0,0,2.18-2.86C54.07,101.07,53.17,100,52,99.41Zm31.89-36c-2.37,0-4.62,1.38-4.53,2.75s2.68,3.53,4.09,3.53a3,3,0,0,0,2.94-3C86.44,64.94,85.24,63.35,83.88,63.36ZM75.29,90.6c-1.16,0-3.19,2.8-3.14,4.39s1.21,2.17,3.54,2.17c1.39,0,3.26-1.54,3.33-2.75C79.11,92.83,77,90.66,75.29,90.6ZM50.17,63.43c0-2-1.05-3.25-2.57-3.21-2.27.07-4.25,1.36-4.23,2.76s2.35,3.46,4,3.44A2.67,2.67,0,0,0,50.17,63.43Zm18,43.45c-1-.22-3.13,1.4-3.13,2.14a2.26,2.26,0,0,0,4.45-.76A2.16,2.16,0,0,0,68.14,106.88ZM89.31,82c-.89-.33-3.07,1.47-3,2.24a1.91,1.91,0,0,0,2,1.72c1.38,0,2.61-1.09,2.4-2.27A2.62,2.62,0,0,0,89.31,82ZM67.15,58.68a2,2,0,0,0,2.3-2.06c0-.89-.24-1.65-1.25-1.81S65,56.26,65.09,57A1.8,1.8,0,0,0,67.15,58.68ZM41.35,77.41c-1-.32-3.06,1.34-3,2.18.12,1.22.92,1.67,2.06,1.67a2.09,2.09,0,0,0,2.24-2.17A2.43,2.43,0,0,0,41.35,77.41Zm32.12-.08a2.37,2.37,0,0,0,2.14-2.07,2.22,2.22,0,0,0-1.69-2.18c-.88-.07-1.69,1.11-1.84,2.65A1.31,1.31,0,0,0,73.47,77.33Zm35.5-11c-1.51.09-3.37,2.61-3.31,4.48,0,1.38.65,1.94,2,1.92,2.73,0,4.8-1.3,4.86-3A3.85,3.85,0,0,0,109,66.32ZM96.53,23.52c-1.09,0-2.91,2.34-3,3.88s.66,2.1,2.78,2.17c1.89.07,3.56-1.15,3.58-2.59A4,4,0,0,0,96.53,23.52Zm29.22,24c-1.78,0-3,1-3,2.46,0,2.09,1.33,4,2.62,4s3.39-2.47,3.32-3.86A2.78,2.78,0,0,0,125.75,47.52ZM88,39.87c-1.24-.09-2.8,2-2.85,3.79,0,1.6.78,2.22,3,2.26,1.55,0,3.23-1.34,3.25-2.66A4,4,0,0,0,88,39.87ZM80.93,27.76A2.38,2.38,0,0,0,83,25.68c0-1.06-1.12-2.24-2-2.16s-1.74,1.62-1.7,2.81A1.4,1.4,0,0,0,80.93,27.76Zm31.56,7.68c-.83.06-1.78,1.54-1.75,2.79,0,1.07.77,1.39,1.67,1.37a2.52,2.52,0,0,0,2-2.23A2.17,2.17,0,0,0,112.49,35.44Zm-8.72,12.12c-.91-.05-2.1,1.56-1.85,2.87a2.17,2.17,0,0,0,1.41,1.27c.91.22,2.15-1.06,2.17-2A2.13,2.13,0,0,0,103.77,47.56Z"/></g></svg>